<?xml version="1.0" encoding="UTF-8" standalone="no"?>
<svg
   xmlns:dc="http://purl.org/dc/elements/1.1/"
   xmlns:cc="http://creativecommons.org/ns#"
   xmlns:rdf="http://www.w3.org/1999/02/22-rdf-syntax-ns#"
   xmlns:svg="http://www.w3.org/2000/svg"
   xmlns="http://www.w3.org/2000/svg"
   xmlns:sodipodi="http://sodipodi.sourceforge.net/DTD/sodipodi-0.dtd"
   xmlns:inkscape="http://www.inkscape.org/namespaces/inkscape"
   aria-hidden="true"
   focusable="false"
   data-prefix="fas"
   data-icon="brain"
   class="svg-inline--fa fa-brain fa-w-18"
   role="img"
   viewBox="0 0 576 512"
   version="1.1"
   id="svg4"
   sodipodi:docname="brain.svg"
   inkscape:version="0.92.5 (2060ec1f9f, 2020-04-08)">
  <metadata
     id="metadata10">
    <rdf:RDF>
      <cc:Work
         rdf:about="">
        <dc:format>image/svg+xml</dc:format>
        <dc:type
           rdf:resource="http://purl.org/dc/dcmitype/StillImage" />
        <dc:title></dc:title>
      </cc:Work>
    </rdf:RDF>
  </metadata>
  <defs
     id="defs8" />
  <sodipodi:namedview
     pagecolor="#ffffff"
     bordercolor="#666666"
     borderopacity="1"
     objecttolerance="10"
     gridtolerance="10"
     guidetolerance="10"
     inkscape:pageopacity="0"
     inkscape:pageshadow="2"
     inkscape:window-width="640"
     inkscape:window-height="480"
     id="namedview6"
     showgrid="false"
     inkscape:zoom="1.666"
     inkscape:cx="288"
     inkscape:cy="304"
     inkscape:current-layer="svg4" />
  <path
     d="M 208,0 C 178.1,0 153.3,20.5 146.2,48.2 C 145.4,48.2 144.8,48 144,48 C 108.7,48 80,76.7 80,112 C 80,116.8 80.6,121.5 81.7,126 C 52.5,138 32,166.6 32,200 C 32,212.6 35.2,224.3 40.3,234.9 C 16.3,248.7 0,274.3 0,304 C 0,337.3 20.4,365.9 49.4,377.9 C 48.5,382.5 48,387.2 48,392 C 48,431.8 80.2,464 120,464 C 124.1,464 128.1,463.5 132,462.8 C 141.6,491.3 168.2,512 200,512 C 239.8,512 272,479.8 272,440 V 64 C 272,28.7 243.3,0 208,0 Z M 576,304 C 576,274.3 559.7,248.7 535.7,234.9 C 540.9,224.3 544,212.6 544,200 C 544,166.6 523.5,138 494.3,126 C 495.3,121.5 496,116.8 496,112 C 496,76.7 467.3,48 432,48 C 431.2,48 430.5,48.2 429.8,48.2 C 422.7,20.5 397.9,0 368,0 C 332.7,0 304,28.6 304,64 V 440 C 304,479.8 336.2,512 376,512 C 407.8,512 434.4,491.3 444,462.8 C 447.9,463.5 451.9,464 456,464 C 495.8,464 528,431.8 528,392 C 528,387.2 527.5,382.5 526.6,377.9 C 555.6,365.9 576,337.3 576,304 Z"
     id="path2"
     style="fill:#f3722c;fill-opacity:1"
     inkscape:connector-curvature="0" />
</svg>
