<?xml version="1.0" encoding="UTF-8" standalone="no"?>
<svg
   xmlns:dc="http://purl.org/dc/elements/1.1/"
   xmlns:cc="http://creativecommons.org/ns#"
   xmlns:rdf="http://www.w3.org/1999/02/22-rdf-syntax-ns#"
   xmlns:svg="http://www.w3.org/2000/svg"
   xmlns="http://www.w3.org/2000/svg"
   xmlns:sodipodi="http://sodipodi.sourceforge.net/DTD/sodipodi-0.dtd"
   xmlns:inkscape="http://www.inkscape.org/namespaces/inkscape"
   aria-hidden="true"
   focusable="false"
   data-prefix="far"
   data-icon="eye"
   class="svg-inline--fa fa-eye fa-w-18"
   role="img"
   viewBox="0 0 404 1196"
   version="1.1"
   id="svg4"
   sodipodi:docname="eyes.svg"
   width="404"
   height="1196"
   inkscape:version="0.92.5 (2060ec1f9f, 2020-04-08)">
  <metadata
     id="metadata10">
    <rdf:RDF>
      <cc:Work
         rdf:about="">
        <dc:format>image/svg+xml</dc:format>
        <dc:type
           rdf:resource="http://purl.org/dc/dcmitype/StillImage" />
        <dc:title></dc:title>
      </cc:Work>
    </rdf:RDF>
  </metadata>
  <defs
     id="defs8" />
  <sodipodi:namedview
     pagecolor="#ffffff"
     bordercolor="#666666"
     borderopacity="1"
     objecttolerance="10"
     gridtolerance="10"
     guidetolerance="10"
     inkscape:pageopacity="0"
     inkscape:pageshadow="2"
     inkscape:window-width="640"
     inkscape:window-height="480"
     id="namedview6"
     showgrid="false"
     fit-margin-top="10"
     fit-margin-left="10"
     fit-margin-right="10"
     fit-margin-bottom="10"
     inkscape:zoom="0.7202"
     inkscape:cx="551.9"
     inkscape:cy="736"
     inkscape:current-layer="svg4" />
  <g
     id="g1156"
     transform="matrix(0,1,1,0,10,10)">
    <path
       inkscape:connector-curvature="0"
       style="opacity:1;vector-effect:none;fill:#90be6d;fill-opacity:1;stroke-width:1;stroke-linecap:butt;stroke-linejoin:miter;stroke-miterlimit:4;stroke-dasharray:none;stroke-dashoffset:0;stroke-opacity:1"
       id="path2"
       d="M 288,79.99 A 110.9,110.9 0 0 0 256.8,84.99 A 55.4,55.4 0 0 1 264,112 A 56,56 0 0 1 208,168 A 55.4,55.4 0 0 1 181,160.8 A 111.7,111.7 0 1 0 288,79.99 Z M 572.5,177.4 C 518.3,71.59 410.9,0 288,0 C 165.1,0 57.68,71.69 3.482,177.4 A 32.35,32.35 0 0 0 3.482,206.6 C 57.71,312.4 165.1,384 288,384 C 410.9,384 518.3,312.4 572.5,206.6 A 32.35,32.35 0 0 0 572.5,177.4 Z M 288,336 C 189.4,336 98.91,281 50.07,192 C 98.91,103 189.3,47.99 288,47.99 C 386.7,47.99 477.1,103 525.9,192 C 477.1,281 386.7,336 288,336 Z" />
    <path
       id="path2-7"
       d="M 887.7,79.99 A 110.9,110.9 0 0 0 856.7,84.99 A 55.4,55.4 0 0 1 863.7,112 A 56,56 0 0 1 807.7,168 A 55.4,55.4 0 0 1 780.7,160.8 A 111.7,111.7 0 1 0 887.7,79.99 Z M 1173,177.4 C 1119,71.59 1011,0.02 887.7,0.02 C 765.7,0.02 657.7,71.59 603.7,177.4 A 32.35,32.35 0 0 0 603.7,206.6 C 657.7,312.4 765.7,384 887.7,384 C 1011,384 1119,312.4 1173,206.6 A 32.35,32.35 0 0 0 1173,177.4 Z M 887.7,336 C 789.7,336 698.7,281 649.7,192 C 698.7,103 789.7,47.99 887.7,47.99 C 986.5,47.99 1078,103 1126,192 C 1078,281 986.5,336 887.7,336 Z"
       style="fill:#90be6d;fill-opacity:1"
       inkscape:connector-curvature="0" />
  </g>
</svg>
