<?xml version="1.0" encoding="UTF-8" standalone="no"?>
<svg
   xmlns:dc="http://purl.org/dc/elements/1.1/"
   xmlns:cc="http://creativecommons.org/ns#"
   xmlns:rdf="http://www.w3.org/1999/02/22-rdf-syntax-ns#"
   xmlns:svg="http://www.w3.org/2000/svg"
   xmlns="http://www.w3.org/2000/svg"
   xmlns:sodipodi="http://sodipodi.sourceforge.net/DTD/sodipodi-0.dtd"
   xmlns:inkscape="http://www.inkscape.org/namespaces/inkscape"
   viewBox="0 0 576 512"
   version="1.1"
   id="svg4"
   sodipodi:docname="notethat.svg"
   inkscape:version="0.92.5 (2060ec1f9f, 2020-04-08)">
  <metadata
     id="metadata10">
    <rdf:RDF>
      <cc:Work
         rdf:about="">
        <dc:format>image/svg+xml</dc:format>
        <dc:type
           rdf:resource="http://purl.org/dc/dcmitype/StillImage" />
        <dc:title></dc:title>
      </cc:Work>
    </rdf:RDF>
  </metadata>
  <defs
     id="defs8">
    <clipPath
       clipPathUnits="userSpaceOnUse"
       id="clipPath819">
      <g
         style="fill:#12073b;fill-opacity:1"
         id="use821"
         inkscape:label="Clip">
        <g
           style="fill:#12073b;fill-opacity:1"
           id="g21"
           clip-path="url(#clipPath830)">
          <g
             style="fill:#12073b;fill-opacity:1"
             inkscape:label="Clip"
             id="g19">
            <path
               style="fill:#12073b;fill-opacity:1"
               inkscape:connector-curvature="0"
               d="M 573,162.9 C 518.3,57.13 410.9,-14.47 288,-14.47 C 165.1,-14.47 57.72,57.13 3.522,162.9 A 32.35,32.35 0 0 0 3.522,192.1 C 57.82,297.9 165.1,369.5 288,369.5 C 410.9,369.5 518.3,297.9 573,192.1 A 32.35,32.35 0 0 0 573,162.9 Z M 288,321.5 A 144,144 0 1 1 432,177.5 A 143.9,143.9 0 0 1 288,321.5 Z M 288,81.53 A 95.31,95.31 0 0 0 262.7,85.33 A 47.85,47.85 0 0 1 195.8,152.2 A 95.78,95.78 0 1 0 288,81.53 Z"
               id="path17" />
          </g>
        </g>
      </g>
    </clipPath>
    <clipPath
       clipPathUnits="userSpaceOnUse"
       id="clipPath830">
      <g
         style="fill:#12073b;fill-opacity:1"
         inkscape:label="Clip"
         id="use832">
        <path
           style="fill:#12073b;fill-opacity:1"
           inkscape:connector-curvature="0"
           d="M 573,162.9 C 518.3,57.13 410.9,-14.47 288,-14.47 C 165.1,-14.47 57.72,57.13 3.522,162.9 A 32.35,32.35 0 0 0 3.522,192.1 C 57.82,297.9 165.1,369.5 288,369.5 C 410.9,369.5 518.3,297.9 573,192.1 A 32.35,32.35 0 0 0 573,162.9 Z M 288,321.5 A 144,144 0 1 1 432,177.5 A 143.9,143.9 0 0 1 288,321.5 Z M 288,81.53 A 95.31,95.31 0 0 0 262.7,85.33 A 47.85,47.85 0 0 1 195.8,152.2 A 95.78,95.78 0 1 0 288,81.53 Z"
           id="path25" />
      </g>
    </clipPath>
  </defs>
  <sodipodi:namedview
     pagecolor="#ffffff"
     bordercolor="#666666"
     borderopacity="1"
     objecttolerance="10"
     gridtolerance="10"
     guidetolerance="10"
     inkscape:pageopacity="0"
     inkscape:pageshadow="2"
     inkscape:window-width="640"
     inkscape:window-height="480"
     id="namedview6"
     showgrid="false"
     inkscape:zoom="1.444"
     inkscape:cx="104.4"
     inkscape:cy="352.6"
     inkscape:current-layer="g22" />
  <!-- Font Awesome Free 5.15.1 by @fontawesome - https://fontawesome.com License - https://fontawesome.com/license/free (Icons: CC BY 4.0, Fonts: SIL OFL 1.1, Code: MIT License) -->
  <g
     id="g22">
    <text
       id="text14"
       y="489.5"
       x="288"
       style="font-style:normal;font-variant:normal;font-weight:normal;font-stretch:normal;font-size:114.8421px;line-height:1.25;font-family:sans-serif;-inkscape-font-specification:'sans-serif, Normal';font-variant-ligatures:normal;font-variant-caps:normal;font-variant-numeric:normal;font-feature-settings:normal;text-align:center;letter-spacing:0px;word-spacing:0px;writing-mode:lr-tb;text-anchor:middle;fill:#277da1;fill-opacity:1;stroke:none;stroke-width:3.5888;"
       xml:space="preserve"><tspan
         style="font-style:normal;font-variant:normal;font-weight:normal;font-stretch:normal;font-family:Chilanka;-inkscape-font-specification:Chilanka;fill:#277da1;fill-opacity:1;stroke-width:3.5888;"
         y="489.5"
         x="288"
         id="tspan12"
         sodipodi:role="line">Note That</tspan></text>
    <path
       id="path104"
       d="M 289.5,82.15 A 110.9,110.9 0 0 0 258.3,87.15 A 55.4,55.4 0 0 1 265.5,114.1 A 56,56 0 0 1 209.5,170.1 A 55.4,55.4 0 0 1 182.5,162.9 A 111.7,111.7 0 1 0 289.5,82.15 Z M 574,179.5 C 519.8,73.75 412.4,2.15 289.5,2.15 C 166.6,2.15 59.15,73.75 4.951,179.5 A 32.35,32.35 0 0 0 4.951,208.7 C 59.15,314.5 166.6,386.1 289.5,386.1 C 412.4,386.1 519.8,314.5 574,208.7 A 32.35,32.35 0 0 0 574,179.5 Z M 289.5,338.1 C 190.9,338.1 100.4,283.1 51.55,194.1 C 100.4,105.1 190.8,50.15 289.5,50.15 C 388.2,50.15 478.6,105.1 527.4,194.1 C 478.6,283.1 388.2,338.1 289.5,338.1 Z"
       inkscape:connector-curvature="0"
       style="fill:#277da1;fill-opacity:1" />
  </g>
</svg>
