<?xml version="1.0" encoding="UTF-8" standalone="no"?>
<svg
   xmlns:dc="http://purl.org/dc/elements/1.1/"
   xmlns:cc="http://creativecommons.org/ns#"
   xmlns:rdf="http://www.w3.org/1999/02/22-rdf-syntax-ns#"
   xmlns:svg="http://www.w3.org/2000/svg"
   xmlns="http://www.w3.org/2000/svg"
   xmlns:sodipodi="http://sodipodi.sourceforge.net/DTD/sodipodi-0.dtd"
   xmlns:inkscape="http://www.inkscape.org/namespaces/inkscape"
   aria-hidden="true"
   focusable="false"
   data-prefix="fas"
   data-icon="flask"
   class="svg-inline--fa fa-flask fa-w-14"
   role="img"
   viewBox="0 0 468 532"
   version="1.1"
   id="svg4"
   sodipodi:docname="tryitout.svg"
   inkscape:version="0.92.5 (2060ec1f9f, 2020-04-08)"
   width="468"
   height="532">
  <metadata
     id="metadata10">
    <rdf:RDF>
      <cc:Work
         rdf:about="">
        <dc:format>image/svg+xml</dc:format>
        <dc:type
           rdf:resource="http://purl.org/dc/dcmitype/StillImage" />
        <dc:title></dc:title>
      </cc:Work>
    </rdf:RDF>
  </metadata>
  <defs
     id="defs8" />
  <sodipodi:namedview
     pagecolor="#ffffff"
     bordercolor="#666666"
     borderopacity="1"
     objecttolerance="10"
     gridtolerance="10"
     guidetolerance="10"
     inkscape:pageopacity="0"
     inkscape:pageshadow="2"
     inkscape:window-width="640"
     inkscape:window-height="480"
     id="namedview6"
     showgrid="false"
     inkscape:zoom="1.652"
     inkscape:cx="234"
     inkscape:cy="266"
     inkscape:current-layer="svg4"
     fit-margin-top="10"
     fit-margin-left="10"
     fit-margin-right="10"
     fit-margin-bottom="10" />
  <path
     d="M 447.2,413.5 L 330,225 V 74 H 338 C 351.3,74 362,63.3 362,50 V 34 C 362,20.7 351.3,10 338,10 H 130 C 116.7,10 106,20.7 106,34 V 50 C 106,63.3 116.7,74 130,74 H 138 V 225 L 20.79,413.5 C -8.509,460.6 25.29,522 80.89,522 H 387.1 C 442.8,522 476.5,460.5 447.2,413.5 Z M 147.9,330 L 196.1,252.4 C 199.8,247.2 201.9,240.8 201.9,234 V 74 H 265.9 V 234 C 265.9,240.9 268.1,247.2 271.7,252.4 L 319.9,330 Z"
     id="path2"
     style="fill:#43aa8b;fill-opacity:1"
     inkscape:connector-curvature="0" />
</svg>
