<?xml version="1.0" encoding="UTF-8" standalone="no"?>
<svg
   xmlns:dc="http://purl.org/dc/elements/1.1/"
   xmlns:cc="http://creativecommons.org/ns#"
   xmlns:rdf="http://www.w3.org/1999/02/22-rdf-syntax-ns#"
   xmlns:svg="http://www.w3.org/2000/svg"
   xmlns="http://www.w3.org/2000/svg"
   xmlns:sodipodi="http://sodipodi.sourceforge.net/DTD/sodipodi-0.dtd"
   xmlns:inkscape="http://www.inkscape.org/namespaces/inkscape"
   viewBox="0 0 512 612"
   version="1.1"
   id="svg4"
   sodipodi:docname="warning.svg"
   inkscape:version="0.92.5 (2060ec1f9f, 2020-04-08)"
   width="512"
   height="612">
  <metadata
     id="metadata10">
    <rdf:RDF>
      <cc:Work
         rdf:about="">
        <dc:format>image/svg+xml</dc:format>
        <dc:type
           rdf:resource="http://purl.org/dc/dcmitype/StillImage" />
        <dc:title></dc:title>
      </cc:Work>
    </rdf:RDF>
  </metadata>
  <defs
     id="defs8" />
  <sodipodi:namedview
     pagecolor="#ffffff"
     bordercolor="#666666"
     borderopacity="1"
     objecttolerance="10"
     gridtolerance="10"
     guidetolerance="10"
     inkscape:pageopacity="0"
     inkscape:pageshadow="2"
     inkscape:window-width="640"
     inkscape:window-height="480"
     id="namedview6"
     showgrid="false"
     inkscape:zoom="0.7595"
     inkscape:cx="27.14"
     inkscape:cy="321.1"
     inkscape:current-layer="svg4" />
  <!-- Font Awesome Free 5.15.1 by @fontawesome - https://fontawesome.com License - https://fontawesome.com/license/free (Icons: CC BY 4.0, Fonts: SIL OFL 1.1, Code: MIT License) -->
  <path
     d="M 504,248 C 504,385 393,496 256,496 C 119,496 8,385 8,248 C 8,111.1 119,0 256,0 C 393,0 504,111.1 504,248 Z M 256,298 C 230.6,298 210,318.6 210,344 C 210,369.4 230.6,390 256,390 C 281.4,390 302,369.4 302,344 C 302,318.6 281.4,298 256,298 Z M 212.3,132.7 L 219.7,268.7 C 220.1,275 225.4,280 231.7,280 H 280.3 C 286.6,280 291.9,275 292.3,268.7 L 299.7,132.7 C 300,125.8 294.6,120 287.7,120 H 224.3 C 217.4,120 212,125.8 212.3,132.7 Z"
     id="path2"
     style="fill:#f94144;fill-opacity:1"
     inkscape:connector-curvature="0" />
  <text
     xml:space="preserve"
     style="font-style:normal;font-variant:normal;font-weight:normal;font-stretch:normal;font-size:116.5053px;line-height:1.25;font-family:Chilanka;-inkscape-font-specification:Chilanka;font-variant-ligatures:normal;font-variant-caps:normal;font-variant-numeric:normal;font-feature-settings:normal;text-align:center;letter-spacing:0px;word-spacing:0px;writing-mode:lr-tb;text-anchor:middle;fill:#000000;fill-opacity:1;stroke:none;stroke-width:3.6408"
     x="255.2"
     y="574.4"
     id="text14"><tspan
       sodipodi:role="line"
       x="255.2"
       y="574.4"
       style="stroke-width:3.6408"
       id="tspan821">Warning!</tspan></text>
</svg>
